<svg width="533" height="166" viewBox="0 0 533 166" fill="none" xmlns="http://www.w3.org/2000/svg">
<path d="M371.803 90.6683C371.773 90.7183 371.773 90.7683 371.803 90.8183C372.093 91.2683 371.793 91.8583 371.263 91.9083C368.473 92.1783 365.793 92.3083 363.213 92.2983C352.963 92.2783 342.713 92.2483 332.483 92.2183C331.133 92.2183 329.533 92.2783 328.533 91.4283C327.523 90.5683 327.943 88.9283 329.233 88.6483C331.553 88.1383 334.553 88.6383 336.383 87.1983C337.773 86.1083 338.323 84.7883 338.023 83.2583C337.163 78.8083 335.183 73.7583 332.073 68.0983C331.863 67.7083 331.533 67.4483 331.103 67.3283C328.823 66.6683 326.463 66.3083 324.033 66.2583C317.913 66.1183 311.743 66.1383 305.523 66.3183C304.113 66.3583 302.833 66.9183 302.103 68.1783C299.333 72.9883 297.753 77.4783 297.373 81.6483C296.953 86.2083 303.443 88.1783 307.003 88.4483C307.983 88.5283 308.833 89.1683 309.183 90.0883C309.223 90.1883 309.223 90.2883 309.193 90.3883C308.923 91.3983 308.093 92.1083 307.143 92.1283C287.243 92.4383 269.403 92.4483 253.633 92.1583C250.763 92.1083 250.263 90.1983 248.933 88.2483C245.503 83.2083 242.063 78.1883 238.603 73.1983C233.733 66.1583 229.543 59.0583 224.463 52.2983C223.673 51.2483 222.583 50.8783 221.193 51.1683C220.743 51.2583 220.413 51.5083 220.183 51.8983C219.513 53.0783 219.163 54.3483 219.143 55.6983C219.033 62.1883 219.003 68.7283 219.053 75.3283C219.093 82.0783 220.583 89.0483 229.483 88.2683C231.053 88.1283 231.583 88.8083 231.083 90.2983L230.983 90.6183C230.623 91.6883 229.873 92.2183 228.743 92.2183L187.213 92.2383C186.043 92.2383 185.393 91.6583 185.273 90.4883C185.243 90.2783 185.293 90.0483 185.413 89.8183C185.853 88.9483 186.553 88.4683 187.523 88.3583C189.633 88.1283 191.363 88.1883 193.323 87.1483C197.583 84.8783 198.203 80.2983 198.173 75.8883C198.083 59.5783 198.053 43.6883 198.103 28.2183C198.133 21.6483 197.633 15.1383 196.843 8.65831C196.803 8.27831 196.583 7.9483 196.253 7.7483C193.573 6.1283 190.653 5.1483 187.503 4.8183C186.533 4.7183 185.793 4.40831 185.303 3.88831C184.523 3.05831 185.023 1.6983 186.153 1.5783C187.863 1.3983 189.473 1.2983 190.983 1.2883C208.823 1.1583 226.743 0.558305 244.833 2.33831C256.053 3.43831 264.453 11.3783 266.473 22.6483C267.263 27.0883 266.683 31.5283 264.733 35.9683C261.833 42.5683 256.863 46.8683 249.823 48.8783C249.133 49.0683 248.793 49.8383 249.093 50.4883C249.663 51.6983 250.323 52.8283 251.073 53.8883C256.883 62.0383 262.213 69.8883 267.063 77.4583C268.763 80.1183 270.823 82.5883 272.803 85.0283C275.183 87.9583 279.583 89.0783 283.073 86.9283C286.123 85.0483 288.173 82.9283 289.213 80.5783C292.963 72.1283 299.733 56.4983 309.523 33.7083C310.973 30.3283 314.433 22.5383 319.923 10.3483C321.353 7.16831 322.133 3.8483 323.913 0.898303C324.503 -0.0916971 325.843 -0.281693 326.693 0.488307C327.503 1.21831 328.173 2.2283 328.713 3.4983C334.383 16.9883 340.023 30.4183 345.643 43.8083C350.053 54.3183 354.693 65.1783 359.543 76.4083C361.773 81.5483 364.473 86.3683 369.993 88.5083C371.443 89.0683 372.863 89.0483 374.243 88.4583C378.473 86.6283 381.443 83.9883 383.143 80.5283C385.583 75.5483 388.083 70.0483 390.643 64.0383C395.873 51.7483 401.103 39.6083 406.343 27.6383C407.993 23.8683 409.883 19.3983 412.033 14.2283C413.803 9.9583 415.793 5.53831 418.003 0.958308C418.483 -0.0316919 419.763 -0.311692 420.603 0.388308C421.533 1.14831 422.223 2.08831 422.673 3.19831C426.653 12.9383 430.593 22.2483 434.493 31.1383C436.913 36.6583 439.143 42.2483 441.623 47.6383C444.093 53.0283 445.833 58.5883 448.253 63.8783C450.543 68.9083 452.743 73.9783 454.843 79.0883C456.813 83.8883 460.243 87.1183 465.113 88.7683C466.493 89.2383 466.593 91.1483 465.273 91.7583C463.983 92.3483 462.123 92.2383 460.663 92.2483C449.553 92.2883 437.543 92.2383 424.643 92.1083C423.533 92.0983 422.673 91.5883 422.073 90.5883C421.963 90.4183 421.943 90.2283 422.013 90.0283C422.313 89.0983 422.953 88.5683 423.923 88.4483C425.393 88.2683 426.933 88.1483 428.533 88.0783C433.073 87.8983 432.453 82.3583 431.263 79.5883C429.833 76.2983 428.513 73.0083 427.303 69.7183C426.473 67.4483 424.643 66.2883 421.823 66.2483C417.013 66.1783 412.053 66.1483 406.923 66.1783C403.593 66.1983 400.433 66.5383 397.433 67.1983C396.073 67.5083 395.893 68.6483 395.413 69.7283C394.163 72.5683 393.013 75.4083 391.973 78.2583C390.663 81.8583 391.303 84.5783 393.873 86.4183C396.243 88.1183 398.653 88.1383 401.373 88.5183C402.283 88.6483 402.893 89.0983 403.183 89.8683C403.403 90.4583 403.103 91.1183 402.503 91.3283C400.913 91.8983 399.283 92.1883 397.603 92.1983C390.003 92.2583 382.233 92.2583 374.283 92.2083C373.293 92.1983 372.693 91.7283 372.503 90.7783C372.373 90.1183 372.133 90.0783 371.803 90.6683ZM232.053 8.01831C228.173 7.33831 224.383 6.78831 220.483 7.58831C219.743 7.73831 219.213 8.37831 219.193 9.12831C218.963 20.5383 218.933 30.5083 219.123 39.0183C219.153 40.7383 219.393 42.4083 219.823 44.0383C219.993 44.6883 220.563 45.1583 221.233 45.1983C227.023 45.5483 237.193 44.5083 240.753 39.1483C244.723 33.1583 244.733 25.9183 243.293 19.1283C242.123 13.6283 237.513 8.97831 232.053 8.01831ZM310.193 48.9883C309.073 52.0183 307.783 54.9283 306.313 57.7183C306.123 58.0683 306.013 58.4283 305.963 58.8083C305.843 59.7883 306.273 60.2783 307.263 60.2883L327.093 60.3183C327.453 60.3183 327.673 60.1483 327.743 59.7983C328.053 58.3883 327.893 57.0183 327.263 55.6983C324.373 49.5783 321.673 43.1083 319.153 36.2983C318.783 35.2683 318.263 34.3683 317.603 33.5783C317.323 33.2483 317.083 33.2783 316.893 33.6683C314.303 38.8383 312.063 43.9483 310.193 48.9883ZM411.023 33.4383C409.353 36.9783 407.673 40.3583 406.393 44.0783C404.763 48.7883 402.663 53.2783 400.073 57.5283C399.343 58.7283 400.203 60.2683 401.603 60.2683L421.273 60.3583C421.693 60.3583 421.873 60.1483 421.813 59.7383C421.533 57.9683 421.603 56.4883 420.853 54.7783C417.683 47.5683 415.493 40.2783 411.573 33.4083C411.453 33.1883 411.133 33.2083 411.023 33.4383Z" fill="white"/>
<path d="M170.892 69.6482C174.392 65.0382 174.012 60.5882 173.872 55.1282C173.712 48.4582 170.562 41.0082 168.142 34.8882C166.822 31.5582 164.052 28.5182 161.852 25.6482C159.032 21.9582 154.512 17.9882 150.482 15.6282C146.502 13.2882 143.272 11.3882 138.282 10.4982C135.452 9.99817 133.422 8.29817 130.392 8.01817C130.182 7.99817 130.092 7.74817 130.232 7.58817C131.122 6.61817 132.202 6.16817 133.472 6.23817C139.032 6.50817 144.002 7.62817 148.392 9.57817C154.222 12.1682 160.442 16.0882 164.762 21.2382C168.032 25.1382 170.792 29.3482 173.052 33.8682C174.702 37.1782 175.582 41.1382 176.912 44.8082C177.682 46.9382 178.042 46.8682 177.972 44.5982C177.792 38.4982 176.522 33.0782 173.522 27.8482C165.582 14.0182 153.772 5.44817 138.102 2.14817C136.712 1.85817 136.692 1.48817 138.042 1.03817C138.642 0.838167 139.172 0.688169 139.812 0.728169C157.462 1.79817 169.752 10.7482 177.972 26.1082C179.202 28.3982 180.082 30.6282 180.622 32.7982C182.572 40.6682 182.882 48.8982 181.542 57.5082C181.232 59.4982 180.632 61.4382 179.742 63.3482C175.982 71.4182 170.902 79.9282 163.372 84.3982C156.102 88.7182 149.412 91.5182 143.322 92.8082C139.232 93.6782 134.662 93.7482 129.592 93.0282C126.242 92.5482 122.402 91.2282 118.082 89.0782C112.342 86.2182 106.832 83.2782 102.862 78.5182C100.732 75.9582 98.8324 73.3982 97.1824 70.8482C94.2224 66.2582 92.2024 61.4182 91.1124 56.3082C90.5724 53.7582 90.4124 50.8882 90.6224 47.6982C90.8524 44.2482 91.0424 41.1382 91.2024 38.3482C91.4124 34.7582 92.4924 30.9282 94.4524 26.8782C97.7724 20.0082 102.802 14.0282 109.542 8.93817C113.812 5.70817 117.952 3.56817 121.962 2.52817C125.212 1.68817 128.102 0.788168 131.482 1.32817C131.992 1.41817 132.012 1.56817 131.542 1.77817C124.562 4.91817 118.452 9.52817 113.222 15.6182C102.532 28.0682 104.302 49.0782 113.792 61.6282C114.952 63.1682 116.152 64.4482 117.402 65.4582C119.802 67.4182 122.712 69.0582 124.782 71.3882C125.042 71.6782 124.852 72.1482 124.462 72.1682C119.772 72.4582 115.992 68.5682 112.612 65.6582C105.572 59.6182 101.492 49.1682 101.762 39.9782C101.852 37.1582 101.822 34.3582 101.672 31.5882C101.482 27.8582 102.532 24.2682 104.832 20.7982C104.902 20.6982 104.882 20.6182 104.782 20.5582L104.562 20.4182C104.392 20.3082 104.252 20.3382 104.142 20.5082C97.6524 30.6682 96.4924 41.2382 100.662 52.2082C102.062 55.8882 103.642 59.8182 105.852 62.9882C110.812 70.0982 117.272 75.3682 125.232 78.8182C125.692 79.0182 125.832 79.6082 125.502 79.9982C125.182 80.3782 124.772 80.5282 124.272 80.4382C118.582 79.4382 113.852 77.4082 110.082 74.3582C108.262 72.8882 106.372 71.1282 104.402 69.0682C102.872 67.4682 101.572 65.6282 100.482 63.5482C99.0724 60.8382 97.7724 58.1982 96.5824 55.6082C96.3524 55.0982 96.1824 55.1182 96.0824 55.6682C95.9124 56.6382 96.0124 57.5582 96.3624 58.4182C97.5824 61.3882 99.0424 64.4982 100.752 67.7482C101.512 69.2082 102.632 70.1582 103.442 71.5382C103.612 71.8182 103.852 71.9382 104.182 71.9082C104.272 71.8982 104.362 71.9182 104.452 71.9682C104.622 72.0582 104.772 72.1882 104.882 72.3682C107.562 76.6482 110.772 79.8182 114.512 81.8682C118.512 84.0682 122.112 86.0782 126.842 86.4282C127.552 86.4782 128.162 85.9182 128.162 85.1982C128.172 81.2882 128.472 77.1382 126.672 73.4982C125.762 71.6382 124.952 69.7882 124.232 67.9582C123.622 66.3982 122.542 64.8682 120.992 63.3782C113.342 56.0282 109.472 46.4682 109.362 34.6982C109.352 33.2482 110.062 32.5782 111.512 32.6982C117.462 33.2082 122.862 34.1882 127.732 35.6182C129.202 36.0482 130.632 36.7282 132.022 37.6482C132.462 37.9482 132.412 38.6182 131.922 38.8382C131.072 39.2282 130.182 39.3282 129.262 39.1282C125.102 38.2182 120.682 37.9482 115.992 38.3282C114.462 38.4582 113.942 39.2482 114.432 40.7082C115.552 44.0282 116.122 47.4682 117.752 50.6182C120.532 55.9982 124.282 60.4782 128.992 64.0682C130.432 65.1582 132.142 66.0282 134.112 66.6682C134.472 66.7782 134.852 66.7682 135.192 66.6282C139.452 64.9682 143.082 62.5782 146.092 59.4482C146.882 58.6182 147.812 57.9782 148.862 57.5182C149.172 57.3782 149.322 57.4782 149.322 57.8182C149.322 59.1782 148.992 60.3582 148.322 61.3482C146.982 63.3482 145.422 65.3082 143.632 67.2382C142.512 68.4482 141.052 69.5282 139.252 70.4582C136.942 71.6682 134.402 71.1082 131.892 71.3182C131.232 71.3682 130.822 72.0482 131.062 72.6582C132.792 77.0682 132.092 82.4082 132.172 87.1282C132.182 87.4582 132.352 87.6482 132.682 87.6982C133.762 87.8382 134.832 88.0182 135.902 88.2482C138.052 88.7082 140.312 88.1982 141.612 86.1982C144.532 81.7382 146.192 76.3882 148.072 71.1782C149.522 67.1882 150.272 63.4582 150.312 59.9782C150.382 53.1082 148.162 47.0282 143.642 41.7582C139.482 36.8982 132.402 33.0982 126.002 31.5882C122.092 30.6782 117.742 29.8482 112.952 29.1082C111.602 28.8982 111.472 28.3782 112.542 27.5482C112.942 27.2382 113.392 27.1082 113.882 27.1482C114.532 27.1982 115.182 27.1982 115.822 27.1282C122.072 26.4982 128.712 27.5282 135.762 30.1982C141.792 32.4882 147.532 37.5482 150.642 43.1982C154.222 49.6782 155.542 56.7882 154.602 64.5282C154.172 68.0882 152.602 72.1882 151.672 75.9082C150.832 79.3082 149.222 82.2082 148.122 85.4182C147.932 85.9882 148.102 86.1382 148.642 85.8882C151.742 84.4482 152.572 82.0882 153.692 79.0882C154.702 76.3682 155.572 73.7882 156.302 71.3382C160.392 57.5282 157.862 45.7082 148.712 35.8582C139.862 26.3282 127.152 23.3582 114.632 22.0682C114.172 22.0182 114.022 21.4382 114.392 21.1682C115.302 20.5082 116.352 20.1282 117.542 20.0382C130.642 19.0382 144.052 22.9882 153.082 33.1182C157.672 38.2682 160.502 43.7682 161.562 49.5982C163.072 57.9082 162.522 66.4482 159.912 75.2382C159.702 75.9282 159.552 76.6382 159.442 77.3582C158.982 80.3782 159.552 81.2582 161.142 80.0082C161.822 79.4782 162.312 78.8082 162.602 77.9982C166.312 67.8982 166.962 57.9982 164.532 48.2882C162.372 39.6082 157.602 32.1382 150.212 25.8782C146.782 22.9682 142.422 20.5682 137.132 18.6782C131.342 16.6082 126.152 15.4782 121.582 15.2882C119.692 15.2082 119.632 14.8182 121.382 14.1082C126.902 11.9082 134.622 13.4482 140.032 15.0582C144.082 16.2682 147.642 17.9782 150.692 20.1982C154.792 23.1782 158.562 26.9182 162.012 31.4082C165.892 36.4582 167.762 42.6382 169.542 48.5482C171.302 54.4282 169.812 62.7782 170.152 69.4182C170.192 70.1682 170.442 70.2482 170.892 69.6482Z" fill="white"/>
<path d="M22.2026 38.3982C25.8226 37.7882 28.6626 35.9582 32.0726 34.9982C34.4526 34.3282 36.4826 33.1282 38.7526 32.3482C44.4226 30.4082 50.0026 28.2582 55.4926 25.9082C55.8226 25.7682 56.0526 25.4482 56.0726 25.0882C56.2926 21.8382 56.1526 18.9482 55.6426 16.4282C55.1126 13.8082 53.5826 11.6482 52.9026 9.07821C52.8526 8.88821 52.9726 8.68822 53.1626 8.62822L53.4426 8.53821C53.8526 8.41821 54.1626 8.54821 54.3626 8.93821C56.4526 12.9382 57.6726 16.2782 58.0426 18.9482C58.2526 20.4782 58.5526 22.0082 58.9626 23.5582C59.0626 23.9382 59.2926 24.0482 59.6426 23.8782C59.8526 23.7882 59.9326 23.6282 59.8926 23.3982C59.8526 23.1882 59.9826 22.9882 60.1826 22.9282C66.4826 21.0382 72.4826 14.2482 75.4326 8.93821C75.6126 8.60821 75.7026 8.22822 75.6726 7.84822C75.6326 7.13822 75.9326 6.72822 76.5626 6.59822C77.5126 6.39822 77.8426 6.76822 77.5526 7.69822C74.7226 16.6982 66.7126 22.7582 59.1226 27.2082C58.7426 27.4382 58.4726 27.7482 58.3026 28.1582C56.0626 33.5282 52.4526 38.0182 47.4826 41.6182C42.9726 44.8782 38.6026 47.0382 33.9426 49.6682C29.7926 52.0182 25.8126 54.3382 21.9826 56.6282C18.0426 58.9982 12.5526 63.5782 10.5226 67.6282C8.6326 71.3982 7.3726 75.4382 6.7426 79.7482C6.6126 80.6582 6.2326 80.7782 5.6026 80.0982C2.5626 76.8182 1.7526 68.5282 1.9526 63.6182C2.1726 58.4982 4.4126 52.2382 8.5326 48.6882C10.2226 47.2382 11.7926 45.8082 13.2426 44.3982C15.5926 42.1282 18.3626 41.1682 21.0926 39.4582C21.1526 39.4182 21.1626 39.3682 21.1326 39.2982L21.0226 39.0582C20.9726 38.9582 20.9026 38.9282 20.8026 38.9782L14.5026 41.9882C13.8426 42.3082 13.0826 41.8082 13.1026 41.0782C13.3426 31.9882 13.2926 23.6182 12.9426 15.9482C12.8526 14.0182 12.5826 11.9882 12.1226 9.83821C11.2026 5.56821 6.3426 5.23821 2.9026 4.85821C1.7226 4.72821 0.882602 4.30822 0.382602 3.59822C-0.267398 2.67822 0.382597 1.41821 1.5026 1.39821C16.3526 1.15821 31.1726 1.13821 45.9426 1.32821C47.0326 1.33821 47.9826 2.05822 48.2926 3.09822C48.3226 3.20822 48.3126 3.31821 48.2626 3.42821C47.7426 4.52821 46.9126 5.07821 45.7726 5.06821C43.5126 5.06821 38.0126 5.14821 36.7726 7.64821C34.5426 12.1482 34.9226 18.7582 35.2226 23.7182C35.2626 24.4582 35.9226 24.9982 36.6526 24.8882C37.4526 24.7682 38.1926 24.4782 38.8826 24.0282C44.7426 20.1982 48.6126 15.1282 50.4826 8.83821C50.5826 8.50821 50.9826 8.39821 51.2426 8.61821C51.5226 8.85821 51.7126 9.15821 51.8226 9.50821C52.0026 10.1382 52.0026 10.7582 51.8226 11.3582C50.4726 15.8082 48.1726 19.5982 44.9226 22.7182C41.5326 25.9782 38.2226 28.4782 34.9926 30.2182C31.6726 32.0082 28.3326 33.8782 24.9626 35.8382C23.9526 36.4282 22.9726 37.1582 22.0226 38.0182C21.6426 38.3582 21.7026 38.4882 22.2026 38.3982ZM52.3826 30.5882C47.7326 32.3582 43.3226 34.1082 39.1326 35.8382C36.7226 36.8382 34.3226 37.8182 31.9426 38.7682C26.4126 40.9982 21.1226 43.9882 16.0726 47.7582C11.5226 51.1482 8.5326 55.3482 7.1026 60.3382C6.9526 60.8682 6.8926 61.4182 6.9326 61.9682C7.0226 63.3582 7.5226 63.5282 8.4326 62.4682C13.1626 56.9982 18.8326 52.6882 25.4426 49.5282C30.4926 47.1182 35.6626 44.4982 40.9526 41.6682C43.8926 40.0982 46.3826 37.8082 48.9526 35.7582C50.6026 34.4382 51.8926 32.8682 52.8026 31.0482C53.0526 30.5382 52.9126 30.3782 52.3826 30.5882Z" fill="white"/>
<path d="M496.393 9.14836C495.583 5.61836 489.233 5.06836 486.443 5.08836C485.353 5.09836 484.373 4.43836 483.963 3.43836C483.903 3.28836 483.903 3.12836 483.973 2.96836C484.423 1.89836 485.233 1.35836 486.403 1.34836C501.153 1.17836 515.603 1.16836 529.733 1.32836C530.903 1.33836 531.763 1.85836 532.293 2.87836C532.443 3.15836 532.383 3.39836 532.133 3.58836C529.103 5.96836 525.283 4.79836 522.343 6.65836C520.343 7.92836 519.313 10.0184 519.263 12.9284C518.993 28.0384 518.973 44.0284 519.183 60.8984C519.253 66.1384 518.953 70.9184 518.293 75.2284C517.843 78.1484 516.963 81.1584 515.143 83.5484C512.113 87.5184 508.773 90.2384 505.103 91.7284C497.113 94.9684 489.023 95.1984 480.833 92.4084C477.453 91.2684 474.833 88.9584 472.273 86.5684C469.203 83.6984 467.443 79.7884 466.993 74.8384C466.773 72.3584 467.343 70.5884 468.293 68.4284C470.823 62.6684 480.523 62.5784 484.263 65.8684C487.603 68.8084 488.173 73.7984 485.793 77.6384C484.763 79.2784 483.333 81.4984 483.213 83.4584C483.193 83.8184 483.313 84.1284 483.563 84.3784C488.063 88.8684 495.593 87.9884 496.673 81.1284C497.623 75.1084 497.043 69.4084 497.073 63.4884C497.153 45.9384 497.133 29.4484 497.013 14.0284C497.003 12.5184 496.793 10.8884 496.393 9.14836Z" fill="white"/>
<path d="M81.8128 9.19832C84.3428 15.9883 84.6528 22.8183 82.7228 29.6983C81.2328 35.0483 76.0228 40.3683 71.6728 43.2483C65.9928 47.0183 59.7828 50.4383 53.3928 52.8183C47.4128 55.0583 41.5728 57.1283 36.1228 60.2383C35.5428 60.5683 35.1728 61.1683 35.1528 61.8383C34.8828 68.5083 34.8828 75.0083 35.1528 81.3183C35.4228 87.3583 39.5228 87.1283 44.7928 87.7083C49.7228 88.2483 54.8128 87.8883 60.0828 86.6383C62.7328 86.0083 64.8728 84.9383 66.4928 83.4483C72.1428 78.2383 75.3628 70.7383 77.3528 63.1483C77.8328 61.2883 79.6128 60.3283 81.2828 61.7483C81.5428 61.9583 81.6528 62.2383 81.6228 62.5783C80.8228 70.6183 80.1028 78.3883 79.4528 85.8883C79.2628 88.0883 79.6228 90.0083 79.0928 92.2283C78.7228 93.7883 77.7128 94.4583 76.0428 94.2383C73.3728 93.8783 70.7828 93.4283 68.1128 93.6383C59.0128 94.3383 50.3128 93.3283 41.3328 93.7183C34.6528 94.0083 27.7428 94.0283 20.6028 93.7683C18.2328 93.6783 15.8228 94.2383 13.4928 93.7783C9.35282 92.9783 4.30281 95.3483 0.672814 93.1783C-0.447186 92.5083 -0.097182 90.8083 1.19282 90.6383C4.62282 90.1783 11.2028 89.5383 11.8528 85.3583C12.6728 80.0483 13.1128 75.2983 13.1828 71.1083C13.2228 68.4383 15.0928 66.4283 17.2228 65.0183C22.9928 61.2083 28.2728 58.3283 33.0728 56.3983C36.4328 55.0383 39.8228 53.6483 43.2528 52.2183C46.7528 50.7583 50.6328 49.2983 54.8828 47.8483C57.5028 46.9583 61.5528 44.9783 67.0228 41.9183C72.2828 38.9783 78.6928 33.7083 80.3428 27.8383C80.9528 25.6683 81.8328 23.7683 82.0628 21.4583C82.3528 18.6083 81.9428 15.7183 80.8228 12.7983C80.2528 11.3283 80.0328 9.36832 80.1428 6.93832C80.1628 6.52832 80.3628 6.39832 80.7428 6.56832C81.5128 6.89832 81.8428 7.44832 81.7128 8.23832C81.6628 8.56832 81.6928 8.88832 81.8128 9.19832Z" fill="white"/>
<path d="M3.2928 112.508C7.7028 112.288 12.6028 112.178 18.0128 112.178C190.563 112.248 361.063 112.258 529.523 112.228C529.893 112.228 530.083 112.408 530.083 112.778V115.708C530.083 116.048 529.913 116.218 529.573 116.218C357.143 116.238 184.703 116.238 12.2528 116.208C9.6328 116.208 6.9928 116.148 4.3228 116.018C3.2928 115.968 2.53281 115.488 2.02281 114.598C1.87281 114.328 1.84281 114.068 1.95281 113.818C2.30281 112.978 2.7428 112.538 3.2928 112.508Z" fill="white"/>
<path d="M128.643 134.598C131.943 128.458 141.903 127.958 147.503 130.138C152.183 131.968 155.923 137.788 156.243 143.108C156.693 150.478 155.633 161.728 147.083 163.808C138.433 165.908 128.753 164.548 126.173 154.438C125.093 150.158 124.293 144.868 125.833 140.778C126.623 138.668 127.563 136.608 128.643 134.598ZM140.718 161.026C146.913 161.138 152.043 154.938 152.182 147.184C152.313 139.428 147.403 133.058 141.208 132.95C135.013 132.838 129.883 139.038 129.745 146.793C129.613 154.548 134.523 160.918 140.718 161.026Z" fill="white"/>
<path d="M256.203 134.898C252.893 133.108 249.703 132.718 246.653 133.728C245.303 134.178 244.473 135.038 244.163 136.308C243.263 140.038 244.553 142.508 248.023 143.708C251.863 145.028 255.923 146.268 259.403 148.458C262.523 150.428 262.543 154.388 261.743 157.658C260.793 161.558 258.333 163.918 254.383 164.738C250.253 165.588 246.343 165.178 242.643 163.498C240.213 162.398 238.683 159.828 238.063 155.778C237.893 154.658 238.373 154.088 239.503 154.058L239.983 154.048C241.363 154.018 242.283 154.658 242.733 155.968C244.223 160.268 247.343 161.928 252.073 160.938C255.913 160.128 257.443 157.768 256.673 153.858C256.033 150.658 252.183 149.898 249.563 149.168C243.393 147.458 237.653 144.198 239.303 136.398C240.173 132.238 242.683 129.868 246.823 129.288C250.243 128.808 256.123 128.808 258.763 131.428C260.013 132.678 260.983 134.408 261.673 136.628C261.833 137.158 261.663 137.528 261.163 137.758C260.313 138.148 259.413 138.328 258.483 138.288C257.813 138.258 257.403 137.918 257.243 137.268L256.863 135.748C256.773 135.368 256.553 135.088 256.203 134.898Z" fill="white"/>
<path d="M293.032 155.528C293.402 151.308 289.082 149.798 285.702 149.088C283.222 148.558 281.032 147.298 278.822 146.078C276.112 144.588 274.792 142.338 274.862 139.348C275.072 130.478 279.582 128.798 287.672 128.978C292.532 129.088 295.792 131.608 297.462 136.548C297.612 136.998 297.502 137.368 297.132 137.658C293.482 140.468 292.362 135.368 290.122 134.218C281.272 129.668 274.222 140.968 285.152 144.148C290.302 145.658 298.782 148.398 298.202 155.378C297.782 160.328 295.242 163.418 290.592 164.668C286.142 165.858 278.212 165.438 275.652 160.668C274.792 159.058 274.252 157.408 274.032 155.728C273.912 154.818 274.642 154.018 275.562 154.038C276.432 154.058 277.242 154.288 277.972 154.728C278.302 154.918 278.552 155.228 278.682 155.598L279.852 158.918C279.962 159.248 280.182 159.498 280.492 159.658C284.222 161.618 292.522 161.408 293.032 155.528Z" fill="white"/>
<path d="M316.053 163.038C316.053 164.108 315.193 164.969 314.123 164.969H314.043C312.973 164.969 312.113 164.108 312.113 163.038V131.139C312.113 130.069 312.973 129.208 314.043 129.208H314.123C315.193 129.208 316.053 130.069 316.053 131.139V163.038Z" fill="white"/>
<path d="M334.053 133.828C337.273 129.518 342.913 128.568 348.283 129.138C361.073 130.488 362.453 144.008 360.323 153.848C358.213 163.618 350.653 166.358 341.573 164.688C339.593 164.318 337.903 163.518 336.493 162.288C334.243 160.308 332.783 158.478 332.113 156.798C331.103 154.258 330.483 151.118 330.253 147.388C329.923 142.188 331.193 137.668 334.053 133.828ZM348.473 133.368C336.003 131.178 333.543 143.958 336.083 153.158C337.013 156.548 340.703 161.178 344.843 160.658C347.533 160.318 350.693 160.858 352.693 158.628C354.183 156.968 355.243 155.158 355.873 153.188C357.803 147.188 356.893 141.568 353.143 136.328C351.973 134.698 350.423 133.708 348.473 133.368Z" fill="white"/>
<path d="M396.963 155.898C397.893 152.068 398.163 147.978 397.753 143.638C397.493 140.848 397.323 138.058 397.243 135.278C397.213 134.128 397.703 132.948 397.423 131.868C397.163 130.898 397.453 130.148 398.293 129.598C399.533 128.788 400.613 128.858 401.523 129.828C401.753 130.068 401.843 130.348 401.793 130.668C401.363 133.568 401.133 136.608 401.113 139.788C401.063 148.178 401.043 156.368 401.053 164.348C401.053 164.758 400.853 164.928 400.453 164.848L396.873 164.138C396.443 164.048 396.073 163.778 395.853 163.398C392.403 157.388 388.743 151.268 384.873 145.038C384.053 143.728 383.023 142.598 382.163 141.338C380.693 139.178 379.993 139.398 380.043 142.008C380.193 149.158 380.123 155.978 379.843 162.478C379.793 163.528 379.253 164.108 378.203 164.198L377.703 164.238C376.033 164.388 375.193 163.628 375.173 161.948C375.073 153.578 375.043 145.088 375.083 136.488C375.093 134.218 375.393 132.058 375.983 129.998C376.213 129.198 377.063 128.768 377.843 129.058C379.633 129.728 381.073 130.978 382.143 132.788C385.283 138.068 388.353 143.618 392.053 148.638C393.583 150.718 395.013 153.158 396.323 155.958C396.593 156.548 396.813 156.528 396.963 155.898Z" fill="white"/>
<path d="M419.983 156.348C419.153 158.498 416.633 167.358 412.533 163.358C412.253 163.078 412.213 162.768 412.423 162.438C414.093 159.688 415.393 156.718 416.303 153.528C416.793 151.828 417.453 150.198 418.303 148.648C419.183 147.028 419.913 145.308 420.483 143.488C421.783 139.338 423.863 135.708 425.133 131.578C425.553 130.198 426.663 129.668 427.923 129.268C429.133 128.878 430.023 129.258 430.593 130.398C432.863 134.978 434.883 139.528 436.643 144.038C439.013 150.148 441.303 156.218 443.493 162.248C443.813 163.118 443.533 163.718 442.653 164.028L442.213 164.188C441.063 164.598 439.803 164.068 439.283 162.958L436.073 156.068C435.833 155.548 435.303 155.218 434.723 155.208L421.713 155.168C420.943 155.168 420.253 155.638 419.983 156.348ZM427.673 137.838C425.613 140.858 424.173 145.008 423.103 148.468C422.843 149.298 423.273 150.188 424.083 150.508C426.703 151.538 429.423 151.658 432.253 150.848C432.573 150.758 432.803 150.488 432.863 150.168C433.173 148.448 432.993 146.798 432.323 145.208C431.333 142.898 430.403 140.518 429.553 138.088C429.263 137.268 428.163 137.118 427.673 137.838Z" fill="white"/>
<path d="M56.0828 149.938L56.0728 162.998C56.0728 164.028 55.5728 164.458 54.5628 164.298L53.9228 164.208C52.8728 164.038 52.1028 163.138 52.1028 162.078L52.0928 131.378C52.0928 130.088 53.2928 129.128 54.5528 129.408C57.4828 130.058 60.4428 130.208 63.4328 129.858C67.1228 129.428 73.0728 130.798 74.9028 134.588C76.5528 137.988 77.2528 143.548 73.6028 146.238C68.2128 150.208 63.0728 149.308 56.7928 149.238C56.4028 149.228 56.0828 149.548 56.0828 149.938ZM65.2728 144.658C70.9228 147.148 73.3028 137.178 68.7328 135.018C65.1928 133.338 60.7228 132.878 57.1228 133.568C56.6628 133.658 56.3028 134.038 56.2528 134.508C55.8828 137.708 55.9328 140.698 56.4028 143.488C56.6028 144.678 57.5928 145.578 58.7928 145.648L64.2628 145.978C64.4828 145.998 64.6828 145.828 64.7028 145.608C64.7128 145.478 64.7028 145.358 64.6528 145.228C64.4128 144.558 64.6228 144.368 65.2728 144.658Z" fill="white"/>
<path d="M174.323 142.868C174.483 143.688 174.983 144.108 175.823 144.118L189.093 144.248C190.473 144.258 190.943 144.928 190.513 146.238C190.483 146.328 190.453 146.418 190.443 146.508C190.213 147.638 189.513 148.208 188.363 148.208L175.673 148.268C175.283 148.268 175.053 148.458 174.983 148.838C174.073 153.398 174.013 157.708 174.803 161.768C175.033 162.948 174.583 163.748 173.453 164.158C173.143 164.268 172.823 164.308 172.493 164.268C171.063 164.098 170.293 163.298 170.183 161.868C169.993 159.458 169.923 156.818 169.973 153.948C170.093 146.638 170.143 139.078 170.123 131.248C170.113 130.148 171.083 129.308 172.173 129.458C176.843 130.128 181.643 130.288 186.583 129.938C188.123 129.828 189.743 129.958 191.443 130.318C191.893 130.418 191.973 130.648 191.673 130.998C191.263 131.488 191.263 131.988 191.673 132.498C192.063 132.988 191.943 133.228 191.333 133.228L177.413 133.238C176.363 133.238 175.423 133.868 175.013 134.828C173.983 137.258 173.753 139.938 174.323 142.868Z" fill="white"/>
<path d="M208.042 133.978L208.092 142.978C208.092 143.658 208.652 144.218 209.332 144.218L222.842 144.228C223.692 144.228 224.102 144.648 224.092 145.498L224.062 147.368C224.052 147.938 223.762 148.218 223.192 148.218L208.812 148.228C208.392 148.238 208.052 148.578 208.052 148.998L208.082 158.958C208.082 159.638 208.632 160.188 209.312 160.188L223.152 160.248C223.472 160.248 223.792 160.328 224.072 160.468C226.862 161.878 226.772 163.088 223.802 164.078C223.572 164.158 223.322 164.198 223.082 164.198L204.592 164.208C204.312 164.208 204.092 163.978 204.092 163.698C204.082 153.688 204.082 143.598 204.092 133.428C204.092 131.898 203.482 130.458 205.272 129.588C206.752 128.878 208.782 130.148 210.482 130.158C214.582 130.178 218.432 130.208 222.032 130.258C222.672 130.268 223.302 130.348 223.922 130.498C225.582 130.908 226.242 131.368 225.902 131.878C225.292 132.798 224.472 133.258 223.422 133.248C218.512 133.228 213.642 133.218 208.792 133.218C208.292 133.228 208.042 133.478 208.042 133.978Z" fill="white"/>
<path d="M460.293 159.258C460.373 159.878 460.723 160.189 461.353 160.189L475.223 160.249C475.793 160.249 476.083 160.538 476.083 161.118V163.229C476.083 163.899 475.753 164.229 475.083 164.229H457.253C455.793 164.229 455.063 163.499 455.063 162.029L455.143 131.618C455.143 130.308 455.783 129.508 457.053 129.208C457.273 129.158 457.503 129.148 457.733 129.178C459.273 129.438 460.043 130.349 460.053 131.919C460.083 137.869 460.003 143.849 459.793 149.859C459.693 152.839 459.863 155.968 460.293 159.258Z" fill="white"/>
<path d="M108.203 146.608C108.473 147.328 108.973 147.898 109.693 148.328C110.383 148.728 110.833 149.438 110.913 150.228L112.193 162.348C112.333 163.648 111.753 164.288 110.443 164.258L109.553 164.238C107.903 164.208 107.103 163.358 107.133 161.708C107.193 158.378 108.173 150.248 103.623 149.158C100.293 148.358 97.2431 148.078 94.4631 148.318C93.6931 148.388 93.1031 149.028 93.0931 149.798L92.8731 162.358C92.8531 163.398 91.9931 164.238 90.9531 164.228H90.3331C89.0231 164.218 88.4431 163.568 88.6131 162.258C89.2431 157.418 88.7031 152.218 88.4931 147.218C88.4031 145.148 88.4831 142.898 88.7131 140.488C89.0431 137.128 88.9931 133.948 88.5731 130.938C88.4731 130.208 88.7931 129.848 89.5331 129.858C94.3431 129.908 98.8531 129.988 103.083 130.108C106.473 130.208 109.803 131.078 111.123 134.458C112.403 137.718 113.033 143.108 108.983 144.808C108.283 145.108 107.943 145.898 108.203 146.608ZM94.1031 135.578C93.9731 135.108 94.0031 134.618 94.1731 134.128C94.3131 133.718 94.1931 133.608 93.8031 133.808C93.4331 133.998 93.2431 134.318 93.2231 134.748C93.0731 137.798 93.0231 140.658 93.0931 143.308C93.1131 143.788 93.4931 144.168 93.9731 144.188C96.3831 144.278 99.2431 144.308 102.563 144.298C105.173 144.288 106.463 142.258 106.943 140.018C108.423 133.158 99.5031 132.558 95.2031 133.638C94.8131 133.738 94.5831 134.138 94.6931 134.528C94.8131 134.918 94.7531 135.298 94.5131 135.648C94.3231 135.918 94.1931 135.898 94.1031 135.578Z" fill="white"/>
</svg>
