<svg width="21" height="25" viewBox="0 0 21 25" fill="none" xmlns="http://www.w3.org/2000/svg">
<g id="Mild fragrance">
<path id="Vector" d="M13.7055 8.2465C13.7055 9.72806 14.144 11.0704 14.9544 12.3026C16.6707 14.9083 18.3996 17.5057 20.1388 20.0948C20.3736 20.4439 20.5232 20.9281 20.5897 21.5452C20.7996 23.5296 19.0998 24.5021 17.3419 24.5C12.65 24.4938 7.95802 24.4917 3.26399 24.4896C1.6536 24.4896 0.263463 23.8122 0.0307357 22.0709C-0.0669266 21.3353 0.0681536 20.6891 0.435946 20.1322C2.25413 17.3769 4.07645 14.6236 5.90086 11.8725C6.62814 10.7753 6.84217 9.47039 6.86918 8.02623C6.90035 6.33272 6.90658 4.63923 6.89204 2.94572C6.88996 2.65481 6.71127 2.25171 6.35594 1.73638C5.88841 1.0569 6.0131 0.497928 6.91284 0.500006C9.24634 0.500006 11.5798 0.504174 13.9113 0.512485C14.2936 0.514563 14.5035 0.670397 14.543 0.982085C14.5949 1.41429 14.0962 2.05014 13.9445 2.37221C13.7824 2.71715 13.7014 3.11611 13.7035 3.57118C13.7035 5.12962 13.7035 6.68806 13.7055 8.2465ZM8.58555 8.40235C8.58762 9.91092 8.1388 11.5919 7.29725 12.8616C5.49153 15.5857 3.6858 18.312 1.88009 21.0382C1.15905 22.1229 2.28114 22.7899 3.21205 22.7899C7.99126 22.794 12.7705 22.7857 17.5497 22.767C17.9258 22.7649 18.2333 22.6839 18.4764 22.5197C19.2453 22.0023 18.9565 21.3457 18.5139 20.687C17.2733 18.8439 16.0349 17.0029 14.7985 15.1597C13.6224 13.4081 12.9284 12.2818 12.7165 11.781C12.1949 10.5572 11.9622 9.22313 12.0183 7.78105C12.0432 7.13066 12.0536 5.89013 12.0474 4.05533C12.0474 3.56286 12.1201 3.05794 12.1513 2.54054C12.1617 2.35768 12.0162 2.20392 11.8333 2.206L8.77256 2.22053C8.55646 2.22261 8.45257 2.33065 8.46088 2.54675C8.4775 2.94156 8.57101 3.34262 8.57309 3.70833C8.57933 5.273 8.58347 6.83767 8.58555 8.40235Z" fill="#FDF6FB"/>
<path id="Vector_2" d="M16.9783 21.9146L3.65463 21.9125C3.09567 21.9125 2.75905 21.2933 3.06243 20.8258L7.12891 14.5525C7.25774 14.351 7.48007 14.2305 7.71903 14.2305H12.8681C13.105 14.2305 13.3274 14.351 13.4562 14.5484L17.5663 20.8237C17.8738 21.2933 17.5372 21.9146 16.9783 21.9146ZM13.531 16.7925C13.531 16.5473 13.3315 16.3479 13.0863 16.3479C12.8411 16.3479 12.6416 16.5473 12.6416 16.7925C12.6416 17.0377 12.8411 17.2372 13.0863 17.2372C13.3315 17.2372 13.531 17.0377 13.531 16.7925ZM14.1667 17.7493C14.038 17.5551 13.7783 17.5032 13.585 17.631L13.5677 17.6424C13.3751 17.7712 13.3211 18.031 13.4494 18.2241L14.7155 20.1371C14.8442 20.3312 15.104 20.3832 15.2972 20.2554L15.3145 20.2439C15.5071 20.1151 15.5611 19.8554 15.4329 19.6623L14.1667 17.7493Z" fill="#FDF6FB"/>
</g>
</svg>
