<svg width="28" height="27" viewBox="0 0 28 27" fill="none" xmlns="http://www.w3.org/2000/svg">
<g id="No harsh chemicals">
<path id="Vector" d="M0.670728 10.9897L1.32707 8.66708L2.4386 6.39323L3.78991 4.66193C6.46205 1.59355 10.3412 0.0471552 14.3769 0.173142C18.4064 0.301161 22.0621 2.33727 24.4395 5.59463C28.8308 11.6095 27.6421 19.9612 21.5114 24.2894C13.6332 29.8532 3.1864 25.8358 0.798747 16.6347C0.335441 14.8486 0.292767 12.9669 0.670728 10.9897ZM16.6365 7.86444L16.667 10.0082C16.6771 10.8211 16.6284 11.7253 16.8194 12.4853C16.923 12.9019 17.0531 13.2331 17.2095 13.483C17.9472 14.6616 18.6625 15.8544 19.3534 17.0594C19.648 17.5735 19.7882 18.1242 19.9731 18.6851C20.0849 19.0204 20.4588 19.4959 21.0989 20.1136C21.6089 20.6074 22.1413 21.0808 22.6981 21.5381C22.7509 21.5807 22.7997 21.5767 22.8444 21.5259C25.2747 18.7521 26.2724 15.5496 25.8356 11.9143C25.736 11.073 25.4962 10.1708 25.1183 9.20761L24.466 7.74047C22.505 4.26974 19.6642 2.18893 15.9395 1.496C13.052 0.957513 10.2986 1.44521 7.67925 2.95908C7.05338 3.32078 6.39499 3.83489 5.7935 4.27787C5.62078 4.40386 5.61064 4.54407 5.76101 4.69647C7.46589 6.42981 9.11591 8.04934 10.7111 9.55509C10.77 9.60995 10.8005 9.59776 10.8005 9.51648L10.8086 6.47451C10.8086 6.40542 10.7741 6.36681 10.705 6.35665L9.93481 6.26319C9.85759 6.25303 9.81087 6.21035 9.79665 6.13517C9.74991 5.90961 9.75803 5.68405 9.81899 5.45849C9.83728 5.39347 9.87791 5.3447 9.93684 5.31219C10.1197 5.21262 10.3412 5.16384 10.6034 5.16384C12.7878 5.16181 14.9723 5.16181 17.1567 5.16384C17.7115 5.16587 17.8821 5.69827 17.6627 6.13313C17.6302 6.19816 17.5773 6.23676 17.5062 6.24693L16.8499 6.35665C16.7787 6.36884 16.7401 6.41152 16.7361 6.48264L16.6365 7.86444ZM1.85136 11.0771C1.64002 12.0139 1.54248 12.8165 1.56076 13.4851C1.65221 17.0635 2.99538 20.0547 5.58826 22.4626C6.66525 23.4624 7.78491 24.2061 8.94724 24.6959C13.3324 26.5409 18.1727 25.7688 21.7837 22.5642C21.8385 22.5175 21.8385 22.4667 21.7877 22.4159L19.6866 20.2944C19.6663 20.2721 19.6277 20.2782 19.6134 20.3046C18.7193 21.8449 17.5936 21.7413 15.7424 21.7474C13.8262 21.7555 12.0827 21.7514 10.5099 21.7372C8.90864 21.723 7.94951 20.9874 7.63251 19.5304C7.46182 18.7481 7.68129 17.7991 8.09582 17.1346C8.72373 16.1288 9.33535 15.1107 9.93074 14.0845C10.4489 13.1925 10.7395 12.5178 10.8066 12.0647C10.9082 11.3758 10.4083 10.9227 9.93481 10.5305L4.76734 5.43614C4.73279 5.4016 4.67589 5.39956 4.63932 5.43411C3.16202 6.82403 2.24557 9.1243 1.85136 11.0771ZM11.9323 10.5691C11.9608 11.4246 12.0461 12.3329 11.7291 13.1274C11.5747 13.5115 11.3979 13.8651 11.2008 14.1861C10.7598 14.9014 10.4042 15.513 10.1339 16.0211C10.0994 16.0881 10.1177 16.1206 10.1929 16.1206L17.3884 16.1409C17.4392 16.1409 17.4717 16.0841 17.4432 16.0414C16.8905 15.194 16.3825 14.3182 15.9192 13.416C15.3827 12.3674 15.525 11.4855 15.5595 10.3862L15.529 6.49077C15.529 6.41762 15.4681 6.35869 15.3949 6.35869L12.1294 6.36275C12.0095 6.36275 11.9486 6.42372 11.9465 6.54361L11.9323 10.5691ZM9.3435 17.3541C8.9879 17.8479 8.54085 18.6607 8.73592 19.2805C9.01025 20.1583 9.63408 20.5993 10.6054 20.6013C12.5602 20.6074 14.515 20.6013 16.4719 20.5871C17.6281 20.5789 18.6198 20.4184 18.7762 19.1463C18.8555 18.4961 18.5548 17.9048 18.1768 17.3805C18.1301 17.3175 18.0569 17.2809 17.9777 17.2809L9.49591 17.2748C9.43291 17.2748 9.38211 17.3012 9.3435 17.3541Z" fill="#FDF6FB"/>
</g>
</svg>
