<svg width="28" height="27" viewBox="0 0 28 27" fill="none" xmlns="http://www.w3.org/2000/svg">
<g id="paraben free">
<path id="Vector" d="M13.7898 10.1673C13.8521 10.5574 13.8147 10.9528 13.674 11.35C14.317 11.765 14.846 12.2049 15.2575 12.6698C15.2984 12.7143 15.2984 12.7606 15.2592 12.8069C15.1791 12.9013 15.0829 12.9708 14.9671 13.0171C14.9119 13.0403 14.8656 13.0278 14.8282 12.9815C14.4559 12.5166 13.9928 12.1675 13.4389 11.9342C13.3837 11.911 13.3552 11.8683 13.3552 11.8059V8.07266C13.357 8.01923 13.3837 7.98895 13.4371 7.98183C13.5529 7.96936 13.6616 7.93374 13.7631 7.87496C13.8165 7.84468 13.845 7.79837 13.8504 7.73603C13.8664 7.5597 13.7791 7.4653 13.5903 7.45461C12.9331 7.41542 11.8733 7.41008 10.4074 7.43858C10.3451 7.44036 10.2863 7.46351 10.24 7.50448C10.0316 7.68794 10.085 7.86427 10.4021 8.0317C10.4341 8.04951 10.4715 8.05842 10.5072 8.05842L12.2883 8.0602C12.3489 8.0602 12.3791 8.09048 12.3774 8.15103L12.3684 8.53576C12.3667 8.5696 12.3399 8.59632 12.3079 8.59632L10.6728 8.5981C10.6033 8.5981 10.5677 8.63194 10.5677 8.70141L10.5642 11.7561C10.5642 11.8184 10.5356 11.8612 10.4787 11.8879C9.7751 12.2103 9.24788 12.7161 8.897 13.4054C8.86672 13.4642 8.88454 13.4945 8.95044 13.4945H14.7801C14.83 13.4927 14.8692 13.5319 14.871 13.5817L14.8745 13.7652C14.8763 13.8418 14.814 13.9041 14.7374 13.9041L8.72958 13.9023C8.6708 13.9006 8.62806 13.9273 8.60134 13.9807C7.63596 15.8563 8.92729 18.0969 10.7779 18.7738C11.8715 19.1745 12.9723 19.0071 14.0784 18.2697C14.1015 18.2554 14.1318 18.259 14.1496 18.2786L14.4061 18.5511C14.4185 18.5654 14.4185 18.5778 14.4025 18.5885C10.5428 21.5363 5.49324 16.273 8.83466 12.595L10.0744 11.5174C10.1189 11.4782 10.1403 11.4301 10.1403 11.3713L10.1438 10.463L10.142 8.65154C10.142 8.59276 10.1153 8.55001 10.0619 8.52686C9.52931 8.29174 9.39217 7.87318 9.64866 7.27293C9.76265 7.00576 9.94788 6.92383 10.2453 6.92383C11.4476 6.92561 12.6481 6.92561 13.8486 6.92561C14.5503 6.92561 14.7053 8.10829 13.8931 8.32202C13.8361 8.33805 13.8076 8.37368 13.8076 8.43245L13.7898 10.1673Z" fill="#FDF6FB"/>
<path id="Vector_2" d="M15.0121 19.065C15.0726 19.0169 15.1011 18.9385 15.0833 18.8637C14.2782 15.2177 15.6212 12.3608 19.3581 11.3669C19.4275 11.3491 19.4703 11.374 19.4899 11.4435C19.9708 13.1551 20.0812 15.2302 19.2405 16.7637C18.5459 18.0355 17.3721 18.7176 15.9828 19.1665C15.7513 19.2413 15.5072 19.3678 15.2525 19.5441C14.9337 19.765 14.5953 19.9253 14.2373 20.0232C14.1625 20.0428 14.1037 20.0214 14.0609 19.9555L13.9078 19.7204C13.8721 19.6652 13.9024 19.5922 13.9648 19.5779C14.3335 19.4907 14.6826 19.3197 15.0121 19.065ZM17.9902 14.8472C18.0062 14.8526 18.0222 14.8597 18.0382 14.8668C18.1896 14.9327 18.2431 15.0449 18.1968 15.2035C17.8815 16.2971 17.4131 17.2892 16.7914 18.1815C16.7238 18.2795 16.7416 18.2991 16.8449 18.2403C18.5334 17.2927 19.5629 16.1724 19.513 14.1223C19.497 13.4437 19.3972 12.7704 19.2102 12.1025C19.1978 12.0544 19.1657 12.0366 19.1176 12.0526C18.4319 12.2646 17.8031 12.5781 17.2278 12.9931C15.3434 14.3485 15.021 16.2864 15.42 18.4558C15.4324 18.5217 15.5055 18.5556 15.5625 18.5235C16.7843 17.836 17.4558 16.3345 17.7158 14.9915C17.7461 14.8294 17.8388 14.7813 17.9902 14.8472Z" fill="#FDF6FB"/>
<path id="Vector_3" d="M11.5032 15.4908C11.5032 16.0679 11.0347 16.5364 10.4576 16.5364C9.88055 16.5364 9.41211 16.0679 9.41211 15.4908C9.41211 14.9138 9.88055 14.4453 10.4576 14.4453C11.0347 14.4453 11.5032 14.9138 11.5032 15.4908ZM11.0027 15.4944C11.0027 15.1916 10.7586 14.9476 10.4559 14.9476C10.1531 14.9476 9.90905 15.1916 9.90905 15.4944C9.90905 15.7972 10.1531 16.0412 10.4559 16.0412C10.7586 16.0412 11.0027 15.7972 11.0027 15.4944Z" fill="#FDF6FB"/>
<path id="Vector_4" d="M13.7118 15.0444C13.7118 15.3276 13.4838 15.5556 13.2006 15.5556C12.9174 15.5556 12.6895 15.3276 12.6895 15.0444C12.6895 14.7612 12.9174 14.5332 13.2006 14.5332C13.4838 14.5332 13.7118 14.7612 13.7118 15.0444Z" fill="#FDF6FB"/>
<path id="Vector_5" d="M24.9145 6.13841C26.6672 8.8885 27.3743 11.8203 27.0376 14.9355C26.4249 20.6048 22.2588 25.2928 16.6839 26.5058C13.0984 27.2859 9.70357 26.6696 6.50108 24.6587C5.53213 23.9837 4.67006 23.2445 3.91664 22.4394L2.76959 20.9682L1.87011 19.4364C0.945696 17.5502 0.484375 15.566 0.484375 13.4821L0.603719 11.6742C0.735524 10.7142 0.965292 9.78797 1.2948 8.89206C1.63856 7.93915 2.11591 7.00583 2.72506 6.09032C4.21944 3.85143 6.20896 2.21456 8.69543 1.17972C11.9603 -0.179294 15.6081 -0.165045 18.8675 1.1815C21.3843 2.2199 23.4005 3.8728 24.9145 6.13841ZM3.16857 6.04936C2.02329 7.68445 1.26987 9.56355 0.967079 11.5371C0.865554 12.1979 0.817449 12.8658 0.81923 13.5337C0.828136 16.9019 2.14618 20.1328 4.49373 22.5463C5.34155 23.4173 6.30514 24.1653 7.35958 24.7674C11.1231 26.9172 15.7096 27.0455 19.5889 25.1129C20.7235 24.5465 21.7708 23.818 22.6952 22.9488C23.0835 22.5819 23.4504 22.1918 23.7906 21.7804C24.0934 21.4153 24.3784 21.0323 24.6384 20.6369C26.4837 17.8352 27.1712 14.4278 26.5603 11.1292C26.5051 10.8282 26.4374 10.5271 26.3608 10.2315C25.9725 8.73888 25.3206 7.32822 24.4389 6.06361C24.259 5.80712 24.0685 5.5542 23.8708 5.31018C21.7886 2.7489 18.8105 1.07819 15.5404 0.634688C11.8783 0.13953 8.17713 1.22781 5.36649 3.62879C4.5347 4.33946 3.79731 5.15344 3.16857 6.04936Z" fill="#FDF6FB"/>
<path id="Vector_6" d="M13.079 17.1801C13.079 17.5345 12.7904 17.8231 12.436 17.8231C12.0815 17.8231 11.793 17.5345 11.793 17.1801C11.793 16.8257 12.0815 16.5371 12.436 16.5371C12.7904 16.5371 13.079 16.8257 13.079 17.1801Z" fill="#FDF6FB"/>
</g>
</svg>
