<svg width="28" height="27" viewBox="0 0 28 27" fill="none" xmlns="http://www.w3.org/2000/svg">
<g id="silicon free">
<path id="Vector" d="M9.42424 9.73052C10.1438 8.15064 11.0843 6.67939 12.2438 5.31325C12.2866 5.2616 12.3293 5.26338 12.3721 5.31503C14.0196 7.34911 18.1109 13.2893 14.1621 15.2663C13.211 15.7437 12.2741 15.8648 11.3532 15.6279C8.24335 14.8335 8.3413 12.1101 9.42424 9.73052ZM12.2491 6.60459C10.8598 8.34655 7.77847 13.2429 11.0861 14.8104C11.6008 15.0544 12.1316 15.1274 12.682 15.0294C14.1229 14.7747 14.8746 13.975 14.9369 12.6284C15.0295 10.6246 13.5191 8.15063 12.3507 6.60459C12.3257 6.57074 12.2759 6.57074 12.2491 6.60459Z" fill="#FDF6FB"/>
<path id="Vector_2" d="M12.8866 9.50954C12.7655 8.96451 12.4858 8.60472 11.9123 8.45154C11.8998 8.44798 11.8945 8.43373 11.9016 8.42304C11.9604 8.30726 12.0495 8.20217 12.167 8.10777C12.1831 8.0953 12.1991 8.09175 12.2187 8.10065C12.7673 8.33042 13.1164 8.71693 13.2642 9.26018C13.2892 9.3528 13.2607 9.42583 13.1805 9.47926L13.038 9.57189C12.9579 9.62354 12.9062 9.60394 12.8866 9.50954Z" fill="#FDF6FB"/>
<path id="Vector_3" d="M12.1418 13.8776C12.1756 13.89 12.181 13.9114 12.1578 13.9381L11.766 14.387C11.7571 14.3959 11.7446 14.3995 11.7339 14.3959C10.8308 14.0379 10.2858 13.4127 10.0952 12.5221C10.0828 12.4598 10.1041 12.4117 10.1594 12.3796L10.5922 12.1303C10.6563 12.0929 10.6901 12.1107 10.6919 12.1855C10.7186 12.9549 11.2013 13.5196 12.1418 13.8776Z" fill="#FDF6FB"/>
<path id="Vector_4" d="M18.4682 14.7155L17.9089 15.7806C17.8822 15.8305 17.8947 15.8661 17.9463 15.8857C18.8244 16.2241 19.4247 16.7496 19.7506 17.462C20.0427 18.1015 20.2155 18.7694 20.2707 19.4623C20.2761 19.5228 20.2476 19.5584 20.1888 19.5691C18.4611 19.8701 17.0914 19.3376 16.0814 17.9679C16.0476 17.9198 16.0138 17.9216 15.9817 17.9714C15.8125 18.2368 15.6451 18.5004 15.4776 18.7658C14.3413 20.5808 12.3678 21.2523 10.2357 20.9602C10.1769 20.9513 10.1484 20.9175 10.1484 20.8587C10.1645 19.2467 10.6632 17.5778 12.0311 16.6106L12.7649 16.2188C13.6021 15.9017 14.4731 15.7379 15.3797 15.7272C15.4385 15.7254 15.4723 15.6969 15.4812 15.6381C15.7395 13.9086 16.7476 12.9468 18.5074 12.7527C18.5662 12.7473 18.6018 12.7723 18.6125 12.831C18.7283 13.4669 18.6802 14.0957 18.4682 14.7155ZM16.3682 15.5633C17.2713 15.4119 17.9356 14.6318 17.9214 13.7483C17.9196 13.6521 17.8733 13.6147 17.7789 13.6379C16.7654 13.8819 16.2649 14.4982 16.2756 15.4867C16.2756 15.5491 16.3059 15.574 16.3682 15.5633ZM18.1458 18.3277C17.7985 18.3241 17.4832 18.2101 17.2036 17.9839C17.1911 17.9732 17.1787 17.9714 17.1662 17.9768C17.1484 17.9839 17.1359 17.9928 17.1305 18.0035C17.1252 18.0124 17.1252 18.0195 17.1305 18.0267C17.7005 18.7373 18.4433 19.0205 19.3588 18.8763C19.4175 18.8674 19.4407 18.8335 19.4282 18.7747C19.1557 17.5457 18.3221 16.3827 16.9257 16.4236C16.8634 16.4254 16.8562 16.4468 16.9026 16.4877C17.4672 16.9865 18.0674 17.4567 18.2188 18.2386C18.2313 18.2974 18.2064 18.3277 18.1458 18.3277ZM12.3891 18.5984C12.3784 17.731 12.9947 17.2697 13.5878 16.7193C13.6324 16.6783 13.6252 16.6641 13.5665 16.6801C11.8922 17.1076 11.0711 18.6981 10.8021 20.2798C10.7914 20.3386 10.8164 20.3671 10.8751 20.3671C13.4258 20.3635 14.9486 19.1363 15.4456 16.6837C15.4598 16.6178 15.3921 16.5626 15.3298 16.5893C14.2112 17.0648 13.2833 17.7524 12.5441 18.6518C12.4426 18.7747 12.3909 18.7569 12.3891 18.5984Z" fill="#FDF6FB"/>
<path id="Vector_5" d="M18.2802 0.985642C20.0346 1.64111 21.5896 2.6154 22.9486 3.90674C24.272 5.20163 25.2819 6.67286 25.9783 8.32399L26.3061 9.1451L26.8796 11.5318L26.9597 12.1303L27.0203 13.8242L26.974 14.7896L26.7941 15.9527C26.6142 16.9661 26.2722 18.0366 25.7681 19.1623C23.8516 23.063 20.4389 25.7793 16.1909 26.5933C10.2044 27.7403 4.3391 24.6821 1.65668 19.2086L1.20961 18.1542L0.744732 16.6153L0.582641 15.8583L0.424116 14.5651L0.386719 13.8438L0.447272 12.2105L0.516739 11.5301C1.87398 3.19605 10.2329 -1.91764 18.2802 0.985642ZM0.921064 15.7674C0.965593 16.0221 1.01903 16.2768 1.07959 16.528C1.4376 18.0188 2.05745 19.4366 2.9124 20.7119C4.80755 23.5457 7.7411 25.5192 11.079 26.2085C14.3492 26.8836 17.753 26.2727 20.5832 24.5022C23.4473 22.7104 25.4992 19.8748 26.3061 16.5939C26.4628 15.958 26.5714 15.3079 26.6302 14.6542C26.9562 11.0171 25.7343 7.41026 23.2656 4.72072C21.0891 2.34823 18.111 0.869875 14.9067 0.570641C11.722 0.273189 8.53905 1.16376 5.96884 3.06959C3.42536 4.95583 1.66024 7.70771 1.00299 10.8069C0.657447 12.4402 0.628955 14.1234 0.921064 15.7674Z" fill="#FDF6FB"/>
</g>
</svg>
