<svg width="25" height="27" viewBox="0 0 25 27" fill="none" xmlns="http://www.w3.org/2000/svg">
<g id="sulphate free">
<path id="Vector" d="M14.8606 1.66294L15.0276 0.546492C15.0327 0.517515 15.06 0.497063 15.089 0.500472L15.7486 0.590811C15.7776 0.59422 15.7998 0.623194 15.7947 0.65217L15.3327 3.59925C15.3276 3.62823 15.3003 3.64868 15.2714 3.64527L14.6185 3.55323C14.5896 3.54982 14.5674 3.52255 14.5725 3.49187L14.7498 2.35326C14.7549 2.32258 14.7344 2.29531 14.7038 2.2902L13.4441 2.09247C13.4152 2.08736 13.3879 2.10782 13.3828 2.13679L13.2004 3.26006C13.1953 3.28903 13.168 3.30949 13.139 3.30608L12.4879 3.22256C12.4572 3.21915 12.4351 3.19017 12.4402 3.16119L12.8987 0.212411C12.9038 0.183435 12.9311 0.162978 12.9601 0.166387L13.6129 0.253318C13.6436 0.256727 13.664 0.284001 13.6589 0.314682L13.4936 1.44647C13.4885 1.47544 13.5089 1.50272 13.5379 1.50783L14.7975 1.70896C14.8282 1.71408 14.8555 1.69362 14.8606 1.66294Z" fill="#FDF6FB"/>
<path id="Vector_2" d="M10.2582 2.37297L10.3758 3.42465C10.3809 3.47067 10.3604 3.49624 10.3144 3.50135L9.70591 3.56441C9.64454 3.57123 9.61046 3.54396 9.60364 3.4826L9.26274 0.617338C9.25592 0.554271 9.28319 0.51677 9.34626 0.503134C10.0979 0.351434 10.669 0.307115 11.0593 0.368477C11.4053 0.424726 11.6098 0.654836 11.6729 1.0588C11.7667 1.6639 11.5178 2.03207 10.9229 2.16161C10.7286 2.20423 10.5309 2.24343 10.3298 2.27752C10.2769 2.28604 10.2531 2.31843 10.2582 2.37297ZM10.0894 1.07414L10.1542 1.59401C10.1593 1.65026 10.2104 1.68947 10.265 1.68265L10.6025 1.64174C10.8002 1.61617 10.9434 1.45425 10.9212 1.27868L10.911 1.19516C10.8905 1.01789 10.7116 0.896876 10.5139 0.920739L10.1763 0.961645C10.1218 0.968463 10.0826 1.01789 10.0894 1.07414Z" fill="#FDF6FB"/>
<path id="Vector_3" d="M7.85679 3.62386L8.99029 3.1483C9.01756 3.13807 9.04995 3.15001 9.06018 3.17728L9.24767 3.61874C9.25789 3.64772 9.24595 3.68011 9.21698 3.69034L7.37954 4.46247C7.35056 4.4727 7.31817 4.46077 7.30794 4.43179L6.15399 1.68243C6.14377 1.65346 6.15571 1.62107 6.18469 1.61084L6.78977 1.35517C6.81875 1.34494 6.85114 1.35687 6.86137 1.38585L7.78521 3.59318C7.79544 3.62215 7.82781 3.63408 7.85679 3.62386Z" fill="#FDF6FB"/>
<path id="Vector_4" d="M16.7407 3.73923L16.3026 4.10399C16.2856 4.11762 16.2617 4.12103 16.2412 4.1091L15.6259 3.74945C15.5935 3.7307 15.5901 3.68297 15.6208 3.66082L18.2474 1.73473C18.2645 1.7228 18.2866 1.7211 18.3054 1.73133L19.0145 2.14211C19.0332 2.15404 19.0434 2.17449 19.04 2.19665L18.5372 5.36531C18.5321 5.40281 18.4912 5.42156 18.4588 5.40281L17.8571 5.05339C17.8367 5.04146 17.8264 5.02101 17.8315 4.99885L17.9253 4.43466C17.9304 4.4125 17.9202 4.39205 17.9014 4.38011L16.802 3.73411C16.7833 3.72218 16.7577 3.72559 16.7407 3.73923ZM17.2997 3.32844C17.2674 3.3523 17.2708 3.40003 17.3049 3.42049L17.956 3.81252C17.9901 3.83297 18.0344 3.81252 18.0412 3.77331L18.2287 2.72334C18.2372 2.67391 18.1793 2.63812 18.1384 2.6705L17.2997 3.32844Z" fill="#FDF6FB"/>
<path id="Vector_5" d="M4.32398 5.14363C4.91033 5.79645 5.93644 4.9817 5.33305 4.22661C4.93249 3.72719 4.56601 3.27891 4.23193 2.88005C4.21488 2.8596 4.2183 2.82892 4.23875 2.81017L4.74328 2.39598C4.77396 2.37041 4.80294 2.37382 4.8285 2.4045C5.46087 3.14766 5.86655 3.64537 6.04722 3.89593C6.97277 5.17942 4.80806 6.97426 3.69161 5.61748C3.30299 5.14533 2.93482 4.69876 2.58881 4.27775C2.55301 4.23172 2.55641 4.19082 2.60073 4.15502L3.06435 3.7681C3.11208 3.72889 3.15469 3.7323 3.19219 3.78174C3.52627 4.2215 3.90297 4.67489 4.32398 5.14363Z" fill="#FDF6FB"/>
<path id="Vector_6" d="M20.8634 4.32147L20.2703 3.64308C20.2481 3.61752 20.2515 3.57831 20.2754 3.55615L20.6061 3.25957C20.6316 3.23741 20.6708 3.23912 20.693 3.26469L22.5066 5.33395C22.5287 5.35951 22.5253 5.40042 22.4998 5.42258L22.1554 5.70723C22.1299 5.72939 22.0924 5.72598 22.0702 5.70041L21.4805 5.02373C21.4583 4.99816 21.4191 4.99645 21.3935 5.01861L19.5816 6.60039C19.5561 6.62255 19.5169 6.62084 19.4947 6.59527L19.0447 6.07881C19.0226 6.05324 19.0243 6.01404 19.0498 5.99189L20.8583 4.4084C20.8839 4.38625 20.8856 4.34704 20.8634 4.32147Z" fill="#FDF6FB"/>
<path id="Vector_7" d="M3.21494 7.2837C3.14165 7.16098 2.97632 7.12859 2.86212 7.21382C2.61156 7.39961 2.34565 7.57688 2.06441 7.74562C1.2275 8.25186 0.431508 7.45927 0.820134 6.58827C0.999106 6.18771 1.27181 5.86556 1.63658 5.62352C1.70305 5.57921 1.78828 5.5792 1.85476 5.62011L2.17862 5.81954C2.23486 5.85363 2.23145 5.93715 2.17179 5.96613C1.90078 6.10078 1.30592 6.57634 1.33148 6.92235C1.3366 6.99223 1.35875 7.04166 1.39455 7.07064C1.50193 7.14905 1.64681 7.14905 1.7542 7.07235C2.04907 6.85928 2.3201 6.67179 2.56895 6.51157C3.04962 6.20305 3.70415 6.47236 3.86607 6.97519C4.08255 7.64847 3.47403 8.42231 2.91495 8.74275C2.84166 8.78537 2.76836 8.78366 2.69848 8.73764L2.31328 8.49219C2.26555 8.46151 2.27407 8.38992 2.32691 8.37117C2.62349 8.26209 3.4621 7.69278 3.21494 7.2837Z" fill="#FDF6FB"/>
<path id="Vector_8" d="M21.293 8.20736L21.835 9.26074C21.8521 9.29654 21.8385 9.34086 21.8027 9.35961L21.4243 9.55903C21.3885 9.57778 21.3441 9.56414 21.3254 9.52664L20.4322 7.78294C20.4135 7.74715 20.4271 7.70283 20.4629 7.68408L23.0895 6.34435C23.1253 6.3256 23.1697 6.33923 23.1884 6.37503L24.0611 8.08123C24.0782 8.11703 24.0645 8.16134 24.0304 8.18009L23.6606 8.37781C23.6231 8.39827 23.5787 8.38293 23.56 8.34713L23.0367 7.31591C23.0197 7.28011 22.9753 7.26477 22.9395 7.28352L22.4913 7.50511C22.4555 7.52215 22.4401 7.56817 22.4589 7.60397L22.9651 8.57724C22.9839 8.61304 22.9702 8.65735 22.9344 8.6761L22.556 8.87042C22.5185 8.88917 22.4742 8.87553 22.4555 8.83803L21.9629 7.86135C21.9441 7.82385 21.8998 7.81021 21.8623 7.82896L21.3237 8.1085C21.2879 8.12725 21.2743 8.17157 21.293 8.20736Z" fill="#FDF6FB"/>
<path id="Vector_9" d="M7.14639 24.3731L6.69128 25.4214C6.67594 25.4589 6.63162 25.4759 6.59582 25.4606L6.01972 25.21C5.98393 25.1947 5.96687 25.1504 5.98221 25.1146L7.16514 22.3925C7.18048 22.355 7.22479 22.3379 7.26058 22.3533L8.9702 23.0998C9.0077 23.1152 9.02474 23.1578 9.0094 23.1953L8.85089 23.5788C8.83555 23.6163 8.79122 23.6334 8.75372 23.618L7.74126 23.1817C7.70547 23.1663 7.66114 23.1834 7.6458 23.2192L7.42932 23.7152C7.41398 23.751 7.43105 23.7953 7.46684 23.8106L8.40602 24.2197C8.44352 24.2368 8.46056 24.2811 8.44181 24.3186L8.26112 24.7072C8.24408 24.743 8.20147 24.7583 8.16397 24.743L7.24354 24.3356C7.20604 24.3186 7.16173 24.3356 7.14639 24.3731Z" fill="#FDF6FB"/>
<path id="Vector_10" d="M16.5615 24.6078L16.795 25.1669C16.8103 25.2044 16.8546 25.2214 16.8921 25.2061L17.9983 24.7237C18.0376 24.7066 18.0802 24.7254 18.0955 24.7629L18.2574 25.1635C18.2711 25.201 18.254 25.2419 18.2182 25.2589L16.4183 26.0413C16.3825 26.0566 16.3382 26.0396 16.3228 26.0038L15.1365 23.2817C15.1212 23.2459 15.1382 23.2016 15.174 23.1862L16.9501 22.4141C16.9876 22.3988 17.0302 22.4141 17.0455 22.4516L17.216 22.83C17.233 22.8675 17.216 22.9118 17.1785 22.9272L16.1098 23.3959C16.0723 23.4112 16.0552 23.4538 16.0723 23.4913L16.2666 23.9533C16.2819 23.9908 16.3262 24.0078 16.3637 23.9925L17.3762 23.5476C17.412 23.5322 17.4563 23.5493 17.4717 23.5851L17.6421 23.9703C17.6575 24.0061 17.6404 24.0504 17.6046 24.0658L16.599 24.5123C16.5632 24.5277 16.5461 24.5703 16.5615 24.6078Z" fill="#FDF6FB"/>
<path id="Vector_11" d="M11.2983 25.3306C11.525 25.7891 11.6767 26.2783 11.7551 26.7964C11.7602 26.8254 11.7483 26.8373 11.7193 26.8322L10.988 26.7197C10.9608 26.7163 10.9369 26.6959 10.9301 26.6686C10.8483 26.3533 10.7699 26.0328 10.6932 25.709C10.6437 25.5027 10.4989 25.3578 10.2585 25.2726C10.158 25.2368 10.0983 25.2726 10.0813 25.3783L9.91252 26.4027C9.90229 26.4589 9.85114 26.4964 9.7949 26.4879L9.21197 26.401C9.15231 26.3925 9.12673 26.3567 9.13696 26.297L9.65002 23.4215C9.66024 23.3636 9.69433 23.338 9.75399 23.3448C10.3335 23.4062 10.8432 23.5051 11.2812 23.6397C12.0687 23.8835 12.0977 24.8993 11.3375 25.2232C11.2863 25.2453 11.2727 25.2811 11.2983 25.3306ZM10.3233 24.0403L10.2125 24.6505C10.2074 24.6829 10.2278 24.7152 10.2602 24.7204L10.6386 24.7885C10.8398 24.826 11.0307 24.7084 11.0631 24.526L11.0767 24.4562C11.1091 24.2755 10.9727 24.0982 10.7699 24.0607L10.3932 23.9925C10.3608 23.9874 10.3301 24.0079 10.3233 24.0403Z" fill="#FDF6FB"/>
<path id="Vector_12" d="M13.6692 26.1025L14.8623 25.9354C14.9015 25.9303 14.9391 25.9593 14.9442 26.0002L14.997 26.4348C15.0021 26.474 14.9731 26.5098 14.9339 26.5167L12.984 26.7706C12.9431 26.7774 12.9056 26.7485 12.9005 26.7076L12.5084 23.769C12.5033 23.7281 12.5306 23.6906 12.5715 23.6855L14.4891 23.4264C14.53 23.4213 14.5658 23.4486 14.5709 23.4895L14.6237 23.9139C14.6288 23.9548 14.5999 23.9906 14.5589 23.9957L13.4237 24.1389C13.3845 24.144 13.3573 24.1781 13.3607 24.2173L13.4067 24.7184C13.4101 24.761 13.4476 24.79 13.4885 24.7849L14.5879 24.6366C14.6271 24.6298 14.6629 24.657 14.6697 24.6962L14.7413 25.1207C14.7481 25.1616 14.7192 25.2008 14.6783 25.2059L13.5772 25.344C13.5379 25.3491 13.509 25.3849 13.5141 25.4241L13.5874 26.0377C13.5925 26.0786 13.63 26.1076 13.6692 26.1025Z" fill="#FDF6FB"/>
<path id="Vector_13" d="M11.3814 9.78121C10.8565 8.32045 11.1377 7.05571 12.2235 5.98869C12.2644 5.94949 12.3274 5.94608 12.3718 5.98188C12.6922 6.23926 12.9411 6.56993 13.12 6.97049C13.7626 8.41761 13.5734 9.73007 12.5524 10.9079C12.4382 11.0408 12.3121 11.0528 12.174 10.9437C11.8246 10.6658 11.5604 10.2789 11.3814 9.78121Z" fill="#FDF6FB"/>
<path id="Vector_14" d="M3.98654 20.2647C4.09052 20.3892 4.2013 20.3943 4.31721 20.2784L7.19782 17.3654C7.24725 17.3142 7.33248 17.3381 7.35293 17.4063L7.85575 19.15C7.87109 19.2011 7.85576 19.2574 7.81826 19.2949L5.51889 21.6147C5.4473 21.688 5.45072 21.7562 5.52912 21.8209L6.00296 22.2181C6.06432 22.2692 6.06603 22.3238 6.00978 22.38L5.32116 23.0789C5.25468 23.1453 5.1848 23.1504 5.1098 23.0925C0.976392 19.9306 -0.583222 14.6689 1.10764 9.69854C1.10935 9.69343 1.11616 9.69172 1.12127 9.69513C1.20138 9.7565 1.59684 10.1332 2.31103 10.8252C2.33489 10.8491 2.34171 10.8764 2.33148 10.9087C1.31049 14.1132 1.85251 17.7131 3.98654 20.2647Z" fill="#FDF6FB"/>
<path id="Vector_15" d="M8.51348 10.3381C10.5094 10.1353 12.2787 11.9114 12.098 13.892C12.0929 13.9482 12.0606 13.9806 12.0043 13.9857C11.7333 14.0147 11.5526 14.0215 11.4623 14.0062C9.64186 13.7062 8.38053 12.242 8.45212 10.4046C8.45382 10.3705 8.47939 10.3415 8.51348 10.3381Z" fill="#FDF6FB"/>
<path id="Vector_16" d="M15.8659 12.0473C15.2045 13.3069 14.1239 13.958 12.6239 13.9972C12.5643 13.9989 12.5131 13.9529 12.5097 13.8933C12.3938 11.8564 14.0267 10.2235 16.0636 10.3377C16.1198 10.3411 16.1522 10.3718 16.1574 10.428C16.2136 11.028 16.1164 11.5683 15.8659 12.0473Z" fill="#FDF6FB"/>
<path id="Vector_17" d="M23.4281 10.7129C24.6314 15.4395 22.9781 20.2888 19.0407 23.1438C19.0185 23.1609 18.9981 23.1592 18.9793 23.1387L18.1561 22.3052C18.1339 22.2831 18.1356 22.2626 18.1612 22.2439C18.6742 21.8723 19.0526 21.5655 19.2981 21.3217C21.9946 18.6423 23.019 15.4037 22.3713 11.6044C22.3662 11.5703 22.3764 11.543 22.402 11.5209L23.3872 10.6993C23.4025 10.6874 23.4247 10.6942 23.4281 10.7129Z" fill="#FDF6FB"/>
<path id="Vector_18" d="M8.67828 15.4158C8.48567 14.9607 8.41408 14.5005 8.46521 14.0352C8.47033 13.9789 8.5027 13.9449 8.55895 13.9363C8.85553 13.8903 9.1436 13.9005 9.42314 13.9687C10.9078 14.3284 12.3856 15.8113 12.1128 17.4595C12.1043 17.5158 12.0634 17.5601 12.0089 17.5737C11.8486 17.6129 11.6867 17.6215 11.5231 17.5993C10.168 17.4169 9.2186 16.6891 8.67828 15.4158Z" fill="#FDF6FB"/>
<path id="Vector_19" d="M12.7867 15.958C13.4259 14.5876 14.5116 13.9023 16.044 13.9023C16.1173 13.9023 16.1752 13.9603 16.1769 14.0319C16.1923 15.3205 15.6707 16.3278 14.6088 17.0523C13.9969 17.4699 13.3219 17.6505 12.5872 17.5926C12.5446 17.5892 12.5225 17.5653 12.5174 17.5227C12.4628 16.979 12.5532 16.4574 12.7867 15.958Z" fill="#FDF6FB"/>
<path id="Vector_20" d="M12.0138 21.166C10.0093 21.4166 8.40877 19.5075 8.44797 17.6207C8.44968 17.5508 8.50422 17.4945 8.5741 17.4911C9.68373 17.4502 10.599 17.8525 11.3235 18.6979C11.9047 19.378 12.1638 20.1689 12.1041 21.0706C12.099 21.1268 12.07 21.1592 12.0138 21.166Z" fill="#FDF6FB"/>
<path id="Vector_21" d="M16.1665 17.6004C16.3096 19.5435 14.5472 21.3963 12.5836 21.173C12.5427 21.1679 12.512 21.1355 12.5103 21.0946C12.4097 19.0765 14.0239 17.3396 16.0846 17.5186C16.1273 17.522 16.163 17.5578 16.1665 17.6004Z" fill="#FDF6FB"/>
</g>
</svg>
